<svg width="380" height="350" viewBox="0 0 380 350" fill="none" xmlns="http://www.w3.org/2000/svg">
    <path
        d="M306.422 300C305.526 300 304.666 299.644 304.032 299.01C303.398 298.375 303.042 297.515 303.042 296.618V153.382C303.042 152.485 302.686 151.625 302.052 150.99C301.418 150.356 300.559 150 299.662 150H206.539C205.643 150 204.783 149.644 204.149 149.01C203.515 148.375 203.159 147.515 203.159 146.618V0H152.646V350H203.159V203.382C203.159 202.485 203.515 201.625 204.149 200.99C204.783 200.356 205.643 200 206.539 200H249.701C250.598 200 251.457 200.356 252.091 200.99C252.725 201.625 253.081 202.485 253.081 203.382V325C253.081 331.63 255.714 337.989 260.4 342.678C265.086 347.366 271.441 350 278.068 350H353.885C354.781 350 355.641 349.644 356.275 349.01C356.908 348.375 357.264 347.515 357.264 346.618V303.382C357.264 302.485 356.908 301.625 356.275 300.99C355.641 300.356 354.781 300 353.885 300H306.422Z"
        fill="#F7F3F0" />
    <path
        d="M303.055 50V3.38158C303.055 2.48473 302.699 1.62461 302.065 0.990442C301.432 0.356272 300.572 0 299.676 0L256.448 0C255.551 0 254.692 0.356272 254.058 0.990442C253.424 1.62461 253.068 2.48473 253.068 3.38158V96.6184C253.068 97.5153 253.424 98.3754 254.058 99.0096C254.692 99.6437 255.551 100 256.448 100H299.662C300.559 100 301.418 99.6437 302.052 99.0096C302.686 98.3754 303.042 97.5153 303.042 96.6184L303.055 50Z"
        fill="#F7F3F0" />
    <path
        d="M52.6967 200V296.618C52.6967 297.515 52.3406 298.375 51.7068 299.01C51.0729 299.644 50.2132 300 49.3169 300H3.37985C2.48346 300 1.62378 300.356 0.989935 300.99C0.35609 301.625 0 302.485 0 303.382L0 346.618C0 347.515 0.35609 348.375 0.989935 349.01C1.62378 349.644 2.48346 350 3.37985 350H77.6839C84.3109 350 90.6665 347.366 95.3525 342.678C100.039 337.989 102.671 331.63 102.671 325V153.382C102.671 152.485 102.315 151.625 101.681 150.99C101.047 150.356 100.188 150 99.2913 150H56.0897C55.1921 150 54.3311 150.356 53.6951 150.99C53.0592 151.623 52.7002 152.484 52.6967 153.382V200Z"
        fill="#F7F3F0" />
</svg>